<svg width="695" height="259" viewBox="0 0 695 259" fill="none" xmlns="http://www.w3.org/2000/svg">
<path d="M279.974 162.974C250.449 162.974 232.885 155.263 215.899 147.805C199.706 140.695 182.961 133.343 157.043 133.343C134.66 133.343 113.197 142.159 94.2605 149.938C77.939 156.642 62.5229 162.974 48.8648 162.974H33.9005C42.6402 159.062 52.6086 154.169 63.5156 148.817C105.025 128.446 156.685 103.094 196.381 103.094C244.921 103.094 276.895 126.627 277.213 126.864C279.249 128.394 282.135 127.979 283.662 125.935C285.189 123.889 284.776 120.987 282.74 119.453C281.582 118.581 258.324 101.377 220.66 95.6634V87.8234C229.117 86.1375 235.411 79.9247 235.411 72.5359C235.411 68.9202 233.658 60.0486 230.826 52.0203C226.683 40.2781 221.85 34.5703 216.05 34.5703C211.998 34.5703 208.418 37.36 205.216 43.0419C204.272 37.3551 202.405 29.665 199.888 22.454C194.613 7.34496 188.64 0 181.629 0C174.619 0 168.646 7.34495 163.371 22.4546C159.653 33.106 157.351 44.8099 157.351 49.5448C157.351 59.0807 165.83 67.0429 177.02 68.7875V91.1477C150.314 77.2862 123.492 71.4278 97.1874 73.7372C75.9316 75.604 59.5253 82.4798 49.2791 88.1043C35.6658 82.8539 20.8889 79.0178 4.60988 79.0178C2.064 79.0178 0 81.0908 0 83.6478C0 86.2048 2.064 88.2777 4.60988 88.2777C31.2888 88.2777 54.3893 99.8026 74.7705 109.971C83.7389 114.445 91.9438 118.538 99.6891 121.308C85.7346 127.607 72.1379 134.279 59.4681 140.496C35.9135 152.056 13.6655 162.974 4.60988 162.974C2.064 162.974 0 165.047 0 167.604C0 170.161 2.064 172.234 4.60988 172.234H48.8648C64.3355 172.234 80.5666 165.567 97.7505 158.509C116.787 150.689 136.473 142.603 157.043 142.603C181.034 142.603 196.176 149.251 212.207 156.289C230.06 164.128 248.523 172.234 279.974 172.234C282.52 172.234 284.584 170.161 284.584 167.604C284.584 165.047 282.52 162.974 279.974 162.974ZM196.381 93.8337C193.066 93.8337 189.681 93.9973 186.239 94.3072V68.7869C190.665 68.0973 194.666 66.4373 197.886 64.089C197.116 67.6936 196.688 70.7543 196.688 72.5359C196.688 79.9241 202.983 86.1369 211.44 87.8234V94.5362C206.616 94.0868 201.595 93.8337 196.381 93.8337ZM209.539 56.3527C212.419 47.7305 215.063 44.5821 216.05 43.9185C217.037 44.5821 219.681 47.7305 222.561 56.3527C224.898 63.3513 226.192 70.3642 226.192 72.5359C226.192 74.9429 223.885 77.1406 220.66 78.253V73.7706C220.66 71.2136 218.596 69.1406 216.05 69.1406C213.504 69.1406 211.44 71.2136 211.44 73.7706V78.253C208.214 77.1406 205.908 74.9429 205.908 72.5359C205.908 70.3642 207.201 63.3513 209.539 56.3527ZM166.57 49.5448C166.57 46.0921 168.663 35.2815 172.072 25.5191C176.785 12.0194 180.81 9.2599 181.629 9.2599C182.449 9.2599 186.474 12.0194 191.187 25.5184C194.596 35.2809 196.688 46.0915 196.688 49.5442C196.688 54.0513 192.229 57.9935 186.239 59.3665V49.0775C186.239 46.5205 184.175 44.4475 181.629 44.4475C179.084 44.4475 177.02 46.5205 177.02 49.0775V59.3671C171.03 57.9942 166.57 54.0513 166.57 49.5448ZM78.8721 101.677C72.9782 98.7371 66.8655 95.6888 60.4971 92.8169C69.8096 88.5475 82.4973 84.3225 97.9908 82.9613C121.04 80.9383 144.616 85.6911 168.228 97.0901C150.477 100.857 131.763 107.549 113.342 115.334C103.468 113.938 92.0416 108.248 78.8721 101.677Z" transform="translate(0 86.7659)" fill="#E85349"/>
<path d="M4.60988 43.8302H15.196C15.8279 47.1175 17.1143 50.1732 18.9214 52.8494L11.4319 60.3715C9.63159 62.1796 9.63159 65.1113 11.4319 66.9189C12.3317 67.8226 13.5119 68.2751 14.6914 68.2751C15.8709 68.2751 17.051 67.8232 17.9509 66.9189L25.4404 59.3967C28.1049 61.211 31.1475 62.5031 34.4205 63.1383V73.7706C34.4205 76.3275 36.4845 78.4005 39.0304 78.4005C41.5762 78.4005 43.6402 76.3275 43.6402 73.7706V63.1383C46.9133 62.5037 49.9558 61.211 52.6203 59.3967L60.1098 66.9189C61.0097 67.8226 62.1898 68.2751 63.3693 68.2751C64.5488 68.2751 65.729 67.8232 66.6288 66.9189C68.4291 65.1107 68.4291 62.179 66.6288 60.3715L59.1393 52.8494C60.9458 50.1732 62.2328 47.1175 62.8647 43.8302H73.4508C75.9967 43.8302 78.0607 41.7572 78.0607 39.2003C78.0607 36.6433 75.9967 34.5703 73.4508 34.5703H62.8647C62.2328 31.283 60.9464 28.2273 59.1393 25.5512L66.6288 18.029C68.4291 16.2209 68.4291 13.2892 66.6288 11.4817C64.8285 9.67351 61.9095 9.67351 60.1098 11.4817L52.6203 19.0038C49.9558 17.1895 46.9133 15.8974 43.6402 15.2622V4.62995C43.6402 2.07298 41.5762 0 39.0304 0C36.4845 0 34.4205 2.07298 34.4205 4.62995V15.2622C31.1475 15.8968 28.1049 17.1895 25.4404 19.0038L17.9509 11.4817C16.1506 9.67351 13.2316 9.67351 11.4319 11.4817C9.63159 13.2898 9.63159 16.2215 11.4319 18.029L18.9214 25.5512C17.115 28.2273 15.8279 31.283 15.196 34.5703H4.60988C2.064 34.5703 0 36.6433 0 39.2003C0 41.7572 2.064 43.8302 4.60988 43.8302ZM39.0304 24.0757C47.3337 24.0757 54.0893 30.8608 54.0893 39.2003C54.0893 47.5397 47.3337 54.3248 39.0304 54.3248C30.727 54.3248 23.9714 47.5397 23.9714 39.2003C23.9714 30.8608 30.727 24.0757 39.0304 24.0757Z" transform="translate(39.3384 52.1956)" fill="#E85349"/>
<path d="M18.4785 1.16548e-05L2.11341e-08 16.1986L2.04538 18.6235L18.5733 4.2302C24.1227 8.77406 34.8084 18.5295 34.8084 18.5295L36.8537 16.1046L33.0289 12.8764L18.4785 1.16548e-05ZM7.89866 1.79367L7.75686 8.25537L12.8772 3.94038V1.79367H7.89866ZM18.5587 5.28931L3.67227 18.2459C3.6031 22.0769 3.63914 26.3807 3.63914 30.3738H15.0675V19.3998H21.8888V30.3738H33.3179V18.1364L18.5587 5.28931H18.5587Z" transform="translate(142.549 221.049)" fill="#C9DAE1"/>
<path d="M16.8224 1.16548e-05L1.924e-08 16.1986L1.86207 18.6235L16.9087 4.2302C21.9608 8.77406 31.6887 18.5295 31.6887 18.5295L33.5508 16.1046L30.0687 12.8764L16.8224 1.16548e-05ZM7.19076 1.79367L7.06167 8.25537L11.7231 3.94038V1.79367H7.19076ZM16.8954 5.28931L3.34315 18.2459C3.28018 22.0769 3.31299 26.3807 3.31299 30.3738H13.7171V19.3998H19.927V30.3738H30.3318V18.1364L16.8954 5.28931H16.8954Z" transform="translate(2.33398 179.398)" fill="#C9DAE1"/>
<path d="M18.4785 1.16548e-05L2.11341e-08 16.1986L2.04538 18.6235L18.5733 4.2302C24.1227 8.77406 34.8084 18.5295 34.8084 18.5295L36.8537 16.1046L33.0289 12.8764L18.4785 1.16548e-05ZM7.89866 1.79367L7.75686 8.25537L12.8772 3.94038V1.79367H7.89866ZM18.5587 5.28931L3.67227 18.2459C3.6031 22.0769 3.63914 26.3807 3.63914 30.3738H15.0675V19.3998H21.8888V30.3738H33.3179V18.1364L18.5587 5.28931H18.5587Z" transform="translate(112.295 130.847)" fill="#C9DAE1"/>
<path d="M18.4785 1.16548e-05L2.11341e-08 16.1986L2.04538 18.6235L18.5733 4.2302C24.1227 8.77406 34.8084 18.5295 34.8084 18.5295L36.8537 16.1046L33.0289 12.8764L18.4785 1.16548e-05ZM7.89866 1.79367L7.75686 8.25537L12.8772 3.94038V1.79367H7.89866ZM18.5587 5.28931L3.67227 18.2459C3.6031 22.0769 3.63914 26.3807 3.63914 30.3738H15.0675V19.3998H21.8888V30.3738H33.3179V18.1364L18.5587 5.28931H18.5587Z" transform="translate(199.465 190.249)" fill="#C9DAE1"/>
<path fill-rule="evenodd" clip-rule="evenodd" d="M234.149 55.7949V64.9846V75.4872V85.9897V96.4923V106.995V112.246H245.552V59.7333H256.955V47.9179H262.277V32.1641H271.4V20.3487H275.201V0H279.002V20.3487H282.803V32.1641H291.926V47.9179H298.007V59.7333H309.411V112.246H327.656V118.154L345.141 117.497V19.6923H401.398H409C409 98.4615 409 177.231 409 256C386.193 256 362.626 256 339.82 256V137.846H328.416V256H317.773V137.846H306.37V256H295.727V137.846H284.323V256H273.68V137.846H263.037V256H252.394V137.846H240.991V256C160.407 256 80.5836 256 0 256V38.7282H97.3085V28.8821H154.325V55.7949H234.149ZM57.777 51.8564H86.6654V82.0513H57.777V51.8564ZM13.684 192.328H36.4907V221.867H13.684V192.328ZM13.684 122.749H36.4907V152.287H13.684V122.749ZM13.684 53.1692H36.4907V82.7077H13.684V53.1692ZM36.4907 158.195H66.1394V188.39H36.4907V158.195ZM36.4907 87.3026H66.1394V116.841H36.4907V87.3026ZM57.777 191.015H86.6654V221.21H57.777V191.015ZM57.777 121.436H86.6654V151.631H57.777V121.436ZM109.472 209.395H141.401V223.179H109.472V209.395ZM109.472 185.108H141.401V199.549H109.472V185.108ZM109.472 160.821H141.401V175.262H109.472V160.821ZM109.472 136.533H141.401V150.974H109.472V136.533ZM109.472 112.246H141.401V126.687H109.472V112.246ZM109.472 87.959H141.401V102.4H109.472V87.959ZM109.472 63.6718H141.401V78.1128H109.472V63.6718ZM109.472 39.3846H141.401V53.8256H109.472V39.3846ZM267.599 59.7333H271.4V36.759H267.599V59.7333ZM275.201 59.7333H279.002V36.759H275.201V59.7333ZM283.563 59.7333H287.364V36.759H283.563V59.7333ZM250.874 64.9846H256.195V76.8H250.874V64.9846ZM250.874 95.1795H256.195V107.651H250.874V95.1795ZM298.007 95.1795H304.089V107.651H298.007V95.1795ZM285.844 95.1795H291.926V107.651H285.844V95.1795ZM274.441 95.1795H280.522V107.651H274.441V95.1795ZM262.277 95.1795H268.359V107.651H262.277V95.1795ZM250.874 80.0821H256.195V92.5538H250.874V80.0821ZM298.007 80.0821H304.089V92.5538H298.007V80.0821ZM285.844 80.0821H291.926V92.5538H285.844V80.0821ZM274.441 80.0821H280.522V92.5538H274.441V80.0821ZM262.277 80.0821H268.359V92.5538H262.277V80.0821ZM298.007 64.9846H304.089V76.8H298.007V64.9846ZM285.844 64.9846H291.926V76.8H285.844V64.9846ZM274.441 64.9846H280.522V76.8H274.441V64.9846ZM262.277 64.9846H268.359V76.8H262.277V64.9846ZM226.546 244.185V233.026H182.454V244.185H226.546ZM226.546 223.179V212.021H182.454V223.179H226.546ZM226.546 201.518V191.015H182.454V201.518H226.546ZM226.546 180.513V170.01H182.454V180.513H226.546ZM226.546 159.508V149.005H182.454V159.508H226.546ZM226.546 138.503V128H182.454V138.503H226.546ZM226.546 117.497V106.995H182.454V117.497H226.546ZM226.546 96.4923V85.9897H182.454V96.4923H226.546ZM226.546 75.4872V64.9846H182.454V75.4872H226.546ZM160.407 63.0154H171.05V240.903H160.407V63.0154ZM362.626 39.3846H377.831V46.6051H362.626V39.3846ZM401.398 227.774V220.554H383.152V227.774H401.398ZM401.398 214.646V207.426H383.152V214.646H401.398ZM401.398 201.518V194.297H383.152V201.518H401.398ZM401.398 189.046V181.826H383.152V189.046H401.398ZM401.398 175.918V168.697H383.152V175.918H401.398ZM401.398 162.79V155.569H383.152V162.79H401.398ZM401.398 150.318V142.441H383.152V150.318H401.398ZM401.398 137.19V129.969H383.152V137.19H401.398ZM401.398 124.062V116.841H383.152V124.062H401.398ZM401.398 110.933V103.713H383.152V110.933H401.398ZM401.398 98.4615V90.5846H383.152V98.4615H401.398ZM401.398 85.3333V78.1128H383.152V85.3333H401.398ZM401.398 72.2051V64.9846H383.152V72.2051H401.398ZM401.398 59.0769V51.8564H383.152V59.0769H401.398ZM401.398 46.6051V39.3846H383.152V46.6051H401.398ZM362.626 220.554H377.831V227.774H362.626V220.554ZM362.626 207.426H377.831V214.646H362.626V207.426ZM362.626 194.297H377.831V201.518H362.626V194.297ZM362.626 181.826H377.831V189.046H362.626V181.826ZM362.626 168.697H377.831V175.918H362.626V168.697ZM362.626 155.569H377.831V162.79H362.626V155.569ZM362.626 142.441H377.831V150.318H362.626V142.441ZM362.626 129.969H377.831V137.19H362.626V129.969ZM362.626 116.841H377.831V124.062H362.626V116.841ZM362.626 103.713H377.831V110.933H362.626V103.713ZM362.626 90.5846H377.831V98.4615H362.626V90.5846ZM362.626 78.1128H377.831V85.3333H362.626V78.1128ZM362.626 64.9846H377.831V72.2051H362.626V64.9846ZM362.626 51.8564H377.831V59.0769H362.626V51.8564Z" transform="translate(286)" fill="#399EC8"/>
</svg>
