<svg width="115" height="82" viewBox="0 0 115 82" fill="none" xmlns="http://www.w3.org/2000/svg">
<path d="M113.154 74.2917L80.7749 39.1616L113.183 6.67935C113.853 6.00762 115 6.48254 115 7.43131V73.5702C115 74.5393 113.811 75.0046 113.154 74.2917ZM63.7006 56.2758C61.8421 58.1385 59.3192 59.1857 56.6884 59.1857H56.6044C53.9276 59.1857 51.3598 58.123 49.465 56.2303L39.8668 46.6431L6.93257 80.1891C6.27139 80.8624 6.74817 82 7.69157 82H107.698C108.625 82 109.108 80.8956 108.48 80.2137L75.5089 44.4408L63.7006 56.2758ZM56.605 51.733H56.6071C57.318 51.733 57.9861 51.4554 58.4886 50.9522L107.512 1.81678C108.181 1.14558 107.706 -5.22284e-07 106.758 -5.22284e-07H6.28689C5.33867 -5.22284e-07 4.86403 1.14772 5.53537 1.81785L54.7267 50.9554C55.2281 51.4576 55.8951 51.733 56.605 51.733ZM-1.43545e-06 9.3866V74.0119C-1.43545e-06 74.965 1.1556 75.4378 1.8232 74.758L34.5961 41.3768L1.81626 8.63304C1.14546 7.96345 -1.43545e-06 8.4389 -1.43545e-06 9.3866Z" fill="#E85349"/>
</svg>
