<svg width="36" height="57" viewBox="0 0 36 57" fill="none" xmlns="http://www.w3.org/2000/svg">
<path d="M1.2257e-07 5.66191e-07C0.642048 0.964173 1.73106 1.59729 2.96639 1.59729C4.20114 1.59729 5.29015 0.963014 5.9322 5.66191e-07C4.95622 0.157701 3.93433 0.230754 2.96581 0.230754C1.99672 0.231334 0.975408 0.15828 1.2257e-07 5.66191e-07Z" transform="translate(15.0844 55.4033)" fill="#4F4F4F"/>
<path d="M0 1.91089e-06V1.50047C0 2.80613 2.65827 3.7906 6.31146 3.7906C9.96408 3.7906 12.6229 2.80613 12.6229 1.50047V1.91089e-06C10.9016 1.02215 8.59334 1.41176 6.31146 1.41176C4.02958 1.41176 1.72131 1.02215 0 1.91089e-06Z" transform="translate(11.7416 50.457)" fill="#4F4F4F"/>
<path d="M0 -2.08783e-06V1.23841C0 2.54349 2.65827 3.52796 6.31146 3.52796C9.96408 3.52796 12.6229 2.54349 12.6229 1.23841V-2.08783e-06C10.9016 0.858651 8.59793 1.2158 6.31146 1.2158C4.02499 1.2158 1.72131 0.859231 0 -2.08783e-06Z" transform="translate(11.7416 46.9521)" fill="#4F4F4F"/>
<path d="M18.0095 -1.05055e-08C8.05228 -1.05055e-08 -4.02731e-07 8.15691 -4.02731e-07 18.2184C-4.02731e-07 29.2186 6.25695 31.1678 9.04834 36.42C9.87973 37.9825 10.5941 39.8343 10.5941 42.3071V43.1031C10.5941 45.8605 14.5313 46.7795 18.0531 46.7795C21.5754 46.7795 25.5121 45.8605 25.5121 43.1031V42.3071C25.5121 39.8337 26.2132 37.9825 27.0435 36.42C29.8354 31.1678 36 29.2186 36 18.2184C36 8.15691 27.9661 -1.05055e-08 18.0095 -1.05055e-08Z" fill="#4F4F4F"/>
</svg>
