<svg width="8" height="13" viewBox="0 0 8 13" fill="none" xmlns="http://www.w3.org/2000/svg">
<path d="M2.72379e-08 1.2913e-07C0.142677 0.219897 0.38468 0.36429 0.659197 0.36429C0.933586 0.36429 1.17559 0.219632 1.31827 1.2913e-07C1.10138 0.0359664 0.874297 0.0526276 0.659069 0.0526276C0.443715 0.0527598 0.216757 0.0360986 2.72379e-08 1.2913e-07Z" transform="translate(3.35211 12.6357)" fill="#4F4F4F"/>
<path d="M0 4.35813e-07V0.342209C0 0.639988 0.590727 0.864512 1.40255 0.864512C2.21424 0.864512 2.80509 0.639988 2.80509 0.342209V4.35813e-07C2.42258 0.23312 1.90963 0.321978 1.40255 0.321978C0.895463 0.321978 0.382513 0.23312 0 4.35813e-07Z" transform="translate(2.60925 11.5078)" fill="#4F4F4F"/>
<path d="M0 -4.76166e-07V0.282441C0 0.580088 0.590727 0.804613 1.40255 0.804613C2.21424 0.804613 2.80509 0.580088 2.80509 0.282441V-4.76166e-07C2.42258 0.195831 1.91065 0.277284 1.40255 0.277284C0.894442 0.277284 0.382513 0.195963 0 -4.76166e-07Z" transform="translate(2.60925 10.708)" fill="#4F4F4F"/>
<path d="M4.0021 -2.39596e-09C1.78939 -2.39596e-09 -8.94958e-08 1.86033 -8.94958e-08 4.15503C-8.94958e-08 6.66381 1.39043 7.10836 2.01074 8.30623C2.1955 8.66258 2.35424 9.08492 2.35424 9.64888V9.83043C2.35424 10.4593 3.22917 10.6689 4.01179 10.6689C4.79454 10.6689 5.66935 10.4593 5.66935 9.83043V9.64888C5.66935 9.08479 5.82516 8.66258 6.00966 8.30623C6.63009 7.10836 8 6.66381 8 4.15503C8 1.86033 6.21469 -2.39596e-09 4.0021 -2.39596e-09Z" fill="#4F4F4F"/>
</svg>
