<svg width="145" height="700" viewBox="0 0 145 700" fill="none" xmlns="http://www.w3.org/2000/svg">
<path d="M0 17.5C0 7.83502 7.83502 0 17.5 0V0C27.165 0 35 7.83502 35 17.5V682.5C35 692.165 27.165 700 17.5 700V700C7.83502 700 0 692.165 0 682.5V17.5Z" transform="translate(110)" fill="#C9DAE1"/>
<path d="M45.1261 0L0 39.5514L4.99499 45.4724L45.3576 10.3287C58.9097 21.4233 85.005 45.2428 85.005 45.2428L90 39.3219L80.6593 31.4398L45.1261 0ZM19.2892 4.37952L18.9429 20.1568L31.4473 9.62103V4.37952H19.2892ZM45.3218 12.9147L8.96801 44.5502C8.79907 53.9044 8.88711 64.4128 8.88711 74.1626H36.7961V47.3677H53.4542V74.1626H81.3651V44.283L45.3219 12.9147H45.3218Z" transform="translate(7 74.5)" fill="#E85349"/>
<path d="M45 0C20.25 0 0 20.25 0 45C0 69.75 20.25 90 45 90C69.75 90 90 69.75 90 45C90 20.25 69.75 0 45 0ZM20.25 77.8125C10.5 70.5 4.125 58.875 3.9375 45.9375L9.75 46.5L14.25 50.4375L16.3125 52.125L14.25 58.5L20.4375 68.0625V72L21.1875 74.25L20.25 77.8125ZM45 86.25C38.8125 86.25 33 84.9375 27.75 82.5L28.5 78H31.3125L31.875 74.0625L31.125 71.8125L34.3125 70.6875L37.125 66.9375L35.25 63L38.25 60.75L29.8125 54.5625L29.4375 51.1875L25.6875 51.5625V47.625L21.375 48.5625L20.8125 45H13.3125L11.8125 40.5L15.375 36.9375L19.125 35.25L20.8125 29.25L24.375 28.875L27.5625 24.375L31.125 21.9375L28.875 17.0625L24.375 15.5625L31.3125 13.875L36.9375 16.5L39.5625 13.5L45.9375 11.625L47.8125 5.8125L44.25 3.75C44.4375 3.75 44.8125 3.75 45 3.75C52.5 3.75 59.625 5.8125 65.8125 9.375L63.1875 10.5L55.5 16.125L56.625 20.625L52.5 24.5625L48 25.3125L49.875 30.5625L49.5 34.5L45.5625 41.8125V47.8125L50.625 52.3125L59.0625 51.75V57.9375L60.75 61.5L59.625 68.25L62.8125 78L67.875 76.5L69.9375 72.9375L70.875 67.875L74.4375 65.4375V57.1875L79.125 48L77.8125 46.125L85.5 40.3125C85.6875 42 85.875 43.6875 85.875 45.375C86.25 67.6875 67.6875 86.25 45 86.25Z" transform="translate(7 539.5)" fill="#C9DAE1"/>
<path fill-rule="evenodd" clip-rule="evenodd" d="M55.5316 15.4744V18.0231V20.9359V23.8487V26.7616V29.6743V31.1308H58.2361V16.5667H60.9405V13.2897H62.2026V8.9205H64.3662V5.64359H65.2677V0H66.1691V5.64359H67.0707V8.9205H69.2342V13.2897H70.6766V16.5667H73.3812V31.1308H77.7084V32.7692L81.8552 32.5872V5.46154H95.1969H97C97 27.3077 97 49.1539 97 71C91.5908 71 86.0019 71 80.5927 71V38.2308H77.8881V71H75.364V38.2308H72.6601V71H70.1357V38.2308H67.4312V71H64.9071V38.2308H62.3829V71H59.8588V38.2308H57.1543V71C38.0428 71 19.1115 71 0 71V10.741H23.0781V8.01024H36.6004V15.4744H55.5316ZM13.7026 14.3821H20.5539V22.7564H13.7026V14.3821ZM3.24536 53.341H8.65425V61.5334H3.24536V53.341ZM3.24536 34.0436H8.65425V42.2359H3.24536V34.0436ZM3.24536 14.7462H8.65425V22.9385H3.24536V14.7462ZM8.65425 43.8744H15.6859V52.2488H8.65425V43.8744ZM8.65425 24.2128H15.6859V32.4052H8.65425V24.2128ZM13.7026 52.9769H20.5539V61.3513H13.7026V52.9769ZM13.7026 33.6795H20.5539V42.0539H13.7026V33.6795ZM25.9628 58.0744H33.5353V61.8975H25.9628V58.0744ZM25.9628 51.3385H33.5353V55.3436H25.9628V51.3385ZM25.9628 44.6026H33.5353V48.6077H25.9628V44.6026ZM25.9628 37.8667H33.5353V41.8718H25.9628V37.8667ZM25.9628 31.1308H33.5353V35.1359H25.9628V31.1308ZM25.9628 24.3949H33.5353V28.4H25.9628V24.3949ZM25.9628 17.659H33.5353V21.6641H25.9628V17.659ZM25.9628 10.9231H33.5353V14.9282H25.9628V10.9231ZM63.4647 16.5667H64.3662V10.1949H63.4647V16.5667ZM65.2677 16.5667H66.1691V10.1949H65.2677V16.5667ZM67.251 16.5667H68.1524V10.1949H67.251V16.5667ZM59.4982 18.0231H60.7602V21.3H59.4982V18.0231ZM59.4982 26.3974H60.7602V29.8564H59.4982V26.3974ZM70.6766 26.3974H72.1188V29.8564H70.6766V26.3974ZM67.7918 26.3974H69.2342V29.8564H67.7918V26.3974ZM65.0874 26.3974H66.5297V29.8564H65.0874V26.3974ZM62.2026 26.3974H63.645V29.8564H62.2026V26.3974ZM59.4982 22.2102H60.7602V25.6692H59.4982V22.2102ZM70.6766 22.2102H72.1188V25.6692H70.6766V22.2102ZM67.7918 22.2102H69.2342V25.6692H67.7918V22.2102ZM65.0874 22.2102H66.5297V25.6692H65.0874V22.2102ZM62.2026 22.2102H63.645V25.6692H62.2026V22.2102ZM70.6766 18.0231H72.1188V21.3H70.6766V18.0231ZM67.7918 18.0231H69.2342V21.3H67.7918V18.0231ZM65.0874 18.0231H66.5297V21.3H65.0874V18.0231ZM62.2026 18.0231H63.645V21.3H62.2026V18.0231ZM53.7287 67.7231V64.6282H43.2713V67.7231H53.7287ZM53.7287 61.8975V58.8026H43.2713V61.8975H53.7287ZM53.7287 55.8898V52.9769H43.2713V55.8898H53.7287ZM53.7287 50.0641V47.1513H43.2713V50.0641H53.7287ZM53.7287 44.2385V41.3257H43.2713V44.2385H53.7287ZM53.7287 38.4128V35.5H43.2713V38.4128H53.7287ZM53.7287 32.5872V29.6743H43.2713V32.5872H53.7287ZM53.7287 26.7616V23.8487H43.2713V26.7616H53.7287ZM53.7287 20.9359V18.0231H43.2713V20.9359H53.7287ZM38.0428 17.477H40.5669V66.8129H38.0428V17.477ZM86.0019 10.9231H89.608V12.9256H86.0019V10.9231ZM95.1969 63.1718V61.1693H90.8697V63.1718H95.1969ZM95.1969 59.5308V57.5282H90.8697V59.5308H95.1969ZM95.1969 55.8898V53.8872H90.8697V55.8898H95.1969ZM95.1969 52.4308V50.4283H90.8697V52.4308H95.1969ZM95.1969 48.7898V46.7872H90.8697V48.7898H95.1969ZM95.1969 45.1488V43.1462H90.8697V45.1488H95.1969ZM95.1969 41.6898V39.5052H90.8697V41.6898H95.1969ZM95.1969 38.0487V36.0462H90.8697V38.0487H95.1969ZM95.1969 34.4077V32.4052H90.8697V34.4077H95.1969ZM95.1969 30.7667V28.7641H90.8697V30.7667H95.1969ZM95.1969 27.3077V25.1231H90.8697V27.3077H95.1969ZM95.1969 23.6667V21.6641H90.8697V23.6667H95.1969ZM95.1969 20.0257V18.0231H90.8697V20.0257H95.1969ZM95.1969 16.3846V14.3821H90.8697V16.3846H95.1969ZM95.1969 12.9256V10.9231H90.8697V12.9256H95.1969ZM86.0019 61.1693H89.608V63.1718H86.0019V61.1693ZM86.0019 57.5282H89.608V59.5308H86.0019V57.5282ZM86.0019 53.8872H89.608V55.8898H86.0019V53.8872ZM86.0019 50.4283H89.608V52.4308H86.0019V50.4283ZM86.0019 46.7872H89.608V48.7898H86.0019V46.7872ZM86.0019 43.1462H89.608V45.1488H86.0019V43.1462ZM86.0019 39.5052H89.608V41.6898H86.0019V39.5052ZM86.0019 36.0462H89.608V38.0487H86.0019V36.0462ZM86.0019 32.4052H89.608V34.4077H86.0019V32.4052ZM86.0019 28.7641H89.608V30.7667H86.0019V28.7641ZM86.0019 25.1231H89.608V27.3077H86.0019V25.1231ZM86.0019 21.6641H89.608V23.6667H86.0019V21.6641ZM86.0019 18.0231H89.608V20.0257H86.0019V18.0231ZM86.0019 14.3821H89.608V16.3846H86.0019V14.3821Z" transform="translate(0 308.5)" fill="#C9DAE1"/>
<rect width="24" height="7" transform="translate(101 350)" fill="#C9DAE1"/>
<rect width="24" height="7" transform="translate(101 581)" fill="#C9DAE1"/>
<rect width="24" height="7" transform="translate(101 123)" fill="#E85349"/>
<path fill-rule="evenodd" clip-rule="evenodd" d="M17.5 0C7.83502 0 0 7.83496 0 17.5V130H35V17.5C35 7.83496 27.165 0 17.5 0Z" transform="translate(110)" fill="#E85349"/>
</svg>
