<svg width="18" height="28" viewBox="0 0 18 28" fill="none" xmlns="http://www.w3.org/2000/svg">
<path d="M6.12852e-08 2.78133e-07C0.321024 0.473637 0.86553 0.784647 1.48319 0.784647C2.10057 0.784647 2.64508 0.473067 2.9661 2.78133e-07C2.47811 0.0774682 1.96717 0.113355 1.48291 0.113355C0.998358 0.11364 0.487704 0.077753 6.12852e-08 2.78133e-07Z" transform="translate(7.54221 27.2158)" fill="#E85349"/>
<path d="M0 9.387e-07V0.737085C0 1.37847 1.32914 1.86208 3.15573 1.86208C4.98204 1.86208 6.31146 1.37847 6.31146 0.737085V9.387e-07C5.45081 0.502118 4.29667 0.693509 3.15573 0.693509C2.01479 0.693509 0.860654 0.502118 0 9.387e-07Z" transform="translate(5.87082 24.7861)" fill="#E85349"/>
<path d="M0 -1.02562e-06V0.608351C0 1.24945 1.32914 1.73306 3.15573 1.73306C4.98204 1.73306 6.31146 1.24945 6.31146 0.608351V-1.02562e-06C5.45081 0.4218 4.29897 0.597243 3.15573 0.597243C2.0125 0.597243 0.860654 0.422085 0 -1.02562e-06Z" transform="translate(5.87082 23.0645)" fill="#E85349"/>
<path d="M9.00473 -5.16068e-09C4.02614 -5.16068e-09 -2.01366e-07 4.00697 -2.01366e-07 8.94954C-2.01366e-07 14.3532 3.12848 15.3107 4.52417 17.8908C4.93987 18.6584 5.29704 19.5681 5.29704 20.7828V21.1738C5.29704 22.5284 7.26564 22.9798 9.02654 22.9798C10.7877 22.9798 12.756 22.5284 12.756 21.1738V20.7828C12.756 19.5678 13.1066 18.6584 13.5217 17.8908C14.9177 15.3107 18 14.3532 18 8.94954C18 4.00697 13.983 -5.16068e-09 9.00473 -5.16068e-09Z" fill="#E85349"/>
</svg>
