<svg width="25" height="40" viewBox="0 0 25 40" fill="none" xmlns="http://www.w3.org/2000/svg">
<path d="M8.51183e-08 3.97325e-07C0.445867 0.67661 1.20213 1.1209 2.05999 1.1209C2.91746 1.1209 3.67372 0.675796 4.11958 3.97325e-07C3.44182 0.110667 2.73218 0.161932 2.05959 0.161932C1.38661 0.162339 0.677367 0.111073 8.51183e-08 3.97325e-07Z" transform="translate(10.4753 38.8789)" fill="#E85349"/>
<path d="M0 1.34097e-06V1.05296C0 1.96921 1.84602 2.66006 4.38296 2.66006C6.9195 2.66006 8.76592 1.96921 8.76592 1.05296V1.34097e-06C7.57057 0.717297 5.9676 0.990707 4.38296 0.990707C2.79832 0.990707 1.19535 0.717297 0 1.34097e-06Z" transform="translate(8.1539 35.4082)" fill="#E85349"/>
<path d="M0 -1.46514e-06V0.869054C0 1.7849 1.84602 2.47575 4.38296 2.47575C6.9195 2.47575 8.76592 1.7849 8.76592 0.869054V-1.46514e-06C7.57057 0.60256 5.97079 0.853186 4.38296 0.853186C2.79513 0.853186 1.19535 0.602966 0 -1.46514e-06Z" transform="translate(8.1539 32.9492)" fill="#E85349"/>
<path d="M12.5066 -7.37224e-09C5.59186 -7.37224e-09 -2.79674e-07 5.72413 -2.79674e-07 12.7848C-2.79674e-07 20.5042 4.34511 21.872 6.28357 25.5578C6.86092 26.6543 7.357 27.9538 7.357 29.6891V30.2477C7.357 32.1827 10.0912 32.8276 12.5369 32.8276C14.9829 32.8276 17.7167 32.1827 17.7167 30.2477V29.6891C17.7167 27.9534 18.2036 26.6543 18.7802 25.5578C20.719 21.872 25 20.5042 25 12.7848C25 5.72413 19.4209 -7.37224e-09 12.5066 -7.37224e-09Z" fill="#E85349"/>
</svg>
