<svg width="8" height="13" viewBox="0 0 8 13" fill="none" xmlns="http://www.w3.org/2000/svg">
<path d="M2.72379e-08 1.27144e-07C0.142677 0.216515 0.38468 0.358687 0.659197 0.358687C0.933586 0.358687 1.17559 0.216254 1.31827 1.27144e-07C1.10138 0.0354132 0.874297 0.0518181 0.659069 0.0518181C0.443715 0.0519483 0.216757 0.0355434 2.72379e-08 1.27144e-07Z" transform="translate(3.35211 12.4414)" fill="white"/>
<path d="M0 4.2911e-07V0.336945C0 0.630145 0.590727 0.851216 1.40255 0.851216C2.21424 0.851216 2.80509 0.630145 2.80509 0.336945V4.2911e-07C2.42258 0.229534 1.90963 0.317025 1.40255 0.317025C0.895463 0.317025 0.382513 0.229534 0 4.2911e-07Z" transform="translate(2.60925 11.3301)" fill="white"/>
<path d="M0 -4.68842e-07V0.278097C0 0.571166 0.590727 0.792238 1.40255 0.792238C2.21424 0.792238 2.80509 0.571166 2.80509 0.278097V-4.68842e-07C2.42258 0.192819 1.91065 0.273019 1.40255 0.273019C0.894442 0.273019 0.382513 0.192949 0 -4.68842e-07Z" transform="translate(2.60925 10.5439)" fill="white"/>
<path d="M4.0021 -2.35911e-09C1.78939 -2.35911e-09 -8.94958e-08 1.83172 -8.94958e-08 4.09112C-8.94958e-08 6.56131 1.39043 6.99903 2.01074 8.17847C2.1955 8.52934 2.35424 8.94519 2.35424 9.50047V9.67923C2.35424 10.2984 3.22917 10.5048 4.01179 10.5048C4.79454 10.5048 5.66935 10.2984 5.66935 9.67923V9.50047C5.66935 8.94506 5.82516 8.52934 6.00966 8.17847C6.63009 6.99903 8 6.56131 8 4.09112C8 1.83172 6.21469 -2.35911e-09 4.0021 -2.35911e-09Z" fill="white"/>
</svg>
